<svg width="50" height="51" viewBox="0 0 50 51" fill="none" xmlns="http://www.w3.org/2000/svg">
<path d="M46.875 25.5C46.875 19.6984 44.5703 14.1344 40.4679 10.032C36.3656 5.92969 30.8016 3.62501 25 3.62501C19.4917 3.61992 14.1842 5.69311 10.1378 9.43044C6.09133 13.1678 3.6038 18.2941 3.17207 23.7855C2.74034 29.2768 4.39619 34.7289 7.80887 39.0527C11.2215 43.3765 16.1398 46.2536 21.5812 47.1094V31.8219H16.0312V25.5H21.5844V20.6813C21.5844 15.2 24.85 12.1688 29.8469 12.1688C32.2406 12.1688 34.7437 12.5969 34.7437 12.5969V17.9813H31.9844C29.2656 17.9813 28.4219 19.6688 28.4219 21.3969V25.5H34.4875L33.5187 31.8219H28.4187V47.1094C33.5641 46.2946 38.2498 43.6706 41.6331 39.7093C45.0163 35.748 46.8751 30.7095 46.875 25.5Z" fill="#1877F2"/>
<path d="M33.5156 31.8219L34.4844 25.5H28.4187V21.3969C28.4187 19.6688 29.2625 17.9813 31.9813 17.9813H34.7406V12.5938C34.7406 12.5938 32.2375 12.1656 29.8438 12.1656C24.8438 12.1656 21.5813 15.1969 21.5813 20.6781V25.5H16.0312V31.8219H21.5844V47.1094C23.8496 47.4659 26.1566 47.4659 28.4219 47.1094V31.8219H33.5156Z" fill="#ECECEC"/>
</svg>
