<svg width="50" height="51" viewBox="0 0 50 51" fill="none" xmlns="http://www.w3.org/2000/svg">
<g clip-path="url(#clip0_151_652)">
<path d="M24.9572 0.5C11.9537 0.5 1.30119 10.6182 0.289551 23.4757L13.5567 29.0112C14.6805 28.2347 16.0395 27.7823 17.4999 27.7823C17.6317 27.7823 17.7617 27.7858 17.89 27.793L23.7906 19.1619V19.0408C23.7906 13.8473 27.9779 9.62081 33.1252 9.62081C38.2724 9.62081 42.4597 13.8473 42.4597 19.0408C42.4597 24.2344 38.2724 28.4626 33.1252 28.4626C33.0539 28.4626 32.9845 28.4609 32.9132 28.4591L24.4977 34.5165C24.5031 34.6287 24.5066 34.7409 24.5066 34.8513C24.5066 38.7518 21.3631 41.9239 17.4999 41.9239C14.1088 41.9239 11.2716 39.4803 10.6304 36.2459L1.1409 32.2866C4.07965 42.7717 13.6261 50.4587 24.9572 50.4587C38.6286 50.4587 49.7104 39.2737 49.7104 25.4794C49.7104 11.6833 38.6286 0.5 24.9572 0.5ZM15.8015 38.402L12.7612 37.1339C13.2991 38.2667 14.2324 39.2142 15.4702 39.7343C18.1454 40.8599 21.2302 39.5793 22.3451 36.8774C22.8848 35.5701 22.8884 34.1275 22.354 32.8166C21.8197 31.5058 20.8099 30.4834 19.515 29.9384C18.2273 29.3988 16.8488 29.4184 15.6377 29.8797L18.7794 31.1905C20.7529 32.0205 21.6861 34.3074 20.8633 36.2986C20.0422 38.2898 17.7749 39.232 15.8015 38.402ZM39.3453 19.041C39.3453 15.5804 36.5544 12.7628 33.1259 12.7628C29.6956 12.7628 26.9046 15.5804 26.9046 19.041C26.9046 22.5016 29.6956 25.3175 33.1259 25.3175C36.5544 25.3175 39.3453 22.5016 39.3453 19.041ZM28.4631 19.0303C28.4631 16.4264 30.5558 14.3159 33.1348 14.3159C35.7155 14.3159 37.8083 16.4264 37.8083 19.0303C37.8083 21.6342 35.7155 23.7448 33.1348 23.7448C30.5558 23.7448 28.4631 21.6342 28.4631 19.0303Z" fill="#ECECEC"/>
</g>
<defs>
<clipPath id="clip0_151_652">
<rect width="50" height="50" fill="white" transform="translate(0 0.5)"/>
</clipPath>
</defs>
</svg>
