<svg width="50" height="51" viewBox="0 0 50 51" fill="none" xmlns="http://www.w3.org/2000/svg">
<path d="M42.3969 16.575C42.4219 16.9593 42.4219 17.3468 42.4219 17.7343C42.4219 29.5968 33.3937 43.275 16.8844 43.275V43.2687C12.0067 43.2755 7.23006 41.8782 3.125 39.2437C7.87002 39.8138 12.6472 38.4762 16.4062 35.525C14.5333 35.4892 12.7183 34.8691 11.2151 33.7513C9.71179 32.6335 8.59538 31.0739 8.02187 29.2906C9.36875 29.55 10.7562 29.4968 12.075 29.1343C10.0441 28.724 8.21771 27.6239 6.90543 26.0206C5.59315 24.4172 4.87579 22.4094 4.875 20.3375V20.225C6.125 20.9187 7.52188 21.3031 8.95 21.35C7.04869 20.0804 5.70268 18.1339 5.18597 15.9069C4.66926 13.6798 5.0207 11.3395 6.16875 9.36247C8.42249 12.1351 11.2343 14.4027 14.4215 16.0178C17.6087 17.633 21.1001 18.5596 24.6688 18.7375C24.2199 16.8126 24.4185 14.7934 25.2338 12.9929C26.0491 11.1924 27.4356 9.7111 29.1783 8.77867C30.9211 7.84623 32.9228 7.51473 34.8731 7.83554C36.8234 8.15635 38.6134 9.11155 39.9656 10.5531C41.9757 10.1566 43.9034 9.41995 45.6656 8.37497C44.9956 10.4522 43.5942 12.2156 41.7219 13.3375C43.5007 13.1278 45.2379 12.6517 46.875 11.925C45.6708 13.729 44.1543 15.3037 42.3969 16.575Z" fill="#1D9BF0"/>
</svg>
