<svg width="50" height="51" viewBox="0 0 50 51" fill="none" xmlns="http://www.w3.org/2000/svg">
<path d="M42.3548 9.30793C39.1182 7.79361 35.6575 6.69307 32.0394 6.06641C31.595 6.86976 31.0759 7.95029 30.718 8.80985C26.8719 8.23144 23.0611 8.23144 19.2857 8.80985C18.9279 7.95029 18.397 6.86976 17.9487 6.06641C14.3267 6.69307 10.862 7.79765 7.6254 9.31595C1.09717 19.181 -0.672523 28.8009 0.212326 38.2843C4.54219 41.5177 8.73835 43.482 12.8637 44.7673C13.8823 43.3654 14.7907 41.8753 15.5733 40.3047C14.0828 39.7384 12.6553 39.0395 11.3064 38.2281C11.6643 37.963 12.0143 37.6858 12.3525 37.4006C20.5796 41.2487 29.5185 41.2487 37.6474 37.4006C37.9895 37.6858 38.3395 37.963 38.6934 38.2281C37.3406 39.0435 35.9091 39.7424 34.4187 40.3088C35.2012 41.8753 36.1058 43.3695 37.1282 44.7713C41.2576 43.4859 45.4576 41.5218 49.7875 38.2843C50.8257 27.2907 48.0139 17.759 42.3548 9.30793ZM16.6941 32.4521C14.2244 32.4521 12.1991 30.1465 12.1991 27.3388C12.1991 24.5312 14.1812 22.2216 16.6941 22.2216C19.2071 22.2216 21.2324 24.5271 21.1892 27.3388C21.1931 30.1465 19.2071 32.4521 16.6941 32.4521ZM33.3057 32.4521C30.836 32.4521 28.8107 30.1465 28.8107 27.3388C28.8107 24.5312 30.7927 22.2216 33.3057 22.2216C35.8187 22.2216 37.844 24.5271 37.8008 27.3388C37.8008 30.1465 35.8187 32.4521 33.3057 32.4521Z" fill="#5865F2"/>
</svg>
