<svg width="50" height="51" viewBox="0 0 50 51" fill="none" xmlns="http://www.w3.org/2000/svg">
<path d="M45.975 14.9781C45.7247 14.0547 45.237 13.2129 44.5605 12.5364C43.884 11.8599 43.0422 11.3722 42.1187 11.1219C38.6937 10.2188 25 10.2188 25 10.2188C25 10.2188 11.3062 10.2188 7.88125 11.1219C6.00625 11.625 4.53125 13.1031 4.025 14.9781C3.125 18.4 3.125 25.5 3.125 25.5C3.125 25.5 3.125 32.6344 4.025 36.0219C4.53125 37.8969 6.00938 39.375 7.88125 39.8781C11.3062 40.7813 25 40.7813 25 40.7813C25 40.7813 38.6937 40.7813 42.1187 39.8781C43.0422 39.6278 43.884 39.1402 44.5605 38.4636C45.237 37.7871 45.7247 36.9453 45.975 36.0219C46.875 32.6 46.875 25.5 46.875 25.5C46.875 25.5 46.875 18.4 45.975 14.9781Z" fill="#FF0000"/>
<path d="M20.6031 32.0937L31.9907 25.5375L20.6031 18.9437V32.0937Z" fill="#ECECEC"/>
</svg>
